<svg id="Capa_1" enable-background="new 0 0 511.999 511.999" height="512" viewBox="0 0 511.999 511.999" width="512" xmlns="http://www.w3.org/2000/svg"><g><path d="m133.669 320.232c16.92 2.783 33.47-6.865 39.455-22.819l20.404-51.9c3.88-.865 7.687-2.054 11.389-3.604 5.31-2.223 10.982-3.35 16.862-3.35h68.44c5.88 0 11.553 1.127 16.862 3.35 3.702 1.55 7.509 2.74 11.389 3.604l20.403 51.899c6.002 15.995 22.581 25.597 39.456 22.82 19.587-3.223 32.831-21.681 29.607-41.269-.003-.016-.005-.032-.008-.047l-12.404-72.481c4.103-9.384 6.033-19.671 5.559-30.27-1.546-34.702-29.549-62.922-64.278-64.697-9.888-.504-19.496 1.076-28.593 4.697-7.684 3.057-14.125 2.893-18.319 2.893h-26.393v-27.43c0-4.142-3.357-7.5-7.5-7.5s-7.5 3.358-7.5 7.5v27.43h-26.396c-3.497 0-10.348.279-18.317-2.892-9.1-3.622-18.722-5.205-28.596-4.698-34.687 1.773-62.728 29.954-64.278 64.696-.474 10.6 1.456 20.886 5.559 30.271l-12.411 72.529c-3.214 19.539 10.067 38.053 29.608 41.268zm242.226-14.801c-9.843 1.618-19.507-3.986-22.99-13.327-.016-.041-.031-.082-.048-.123l-17.636-44.859c17.628-.52 34.403-7.651 47.115-20.944.391-.409.758-.833 1.137-1.25l9.667 56.491c1.863 11.392-5.838 22.135-17.245 24.012zm-146.291-171.374h52.79v9.958c0 2.313-1.882 4.195-4.194 4.195h-44.4c-2.313 0-4.195-1.882-4.195-4.195v-9.958zm-103.707 42.775c1.2-26.88 23.188-49.011 50.06-50.385 7.703-.396 15.201.836 22.283 3.654 5.144 2.047 10.633 3.295 16.364 3.751v10.162c0 10.584 8.611 19.195 19.195 19.195h44.4c10.584 0 19.194-8.611 19.194-19.195v-10.162c5.732-.455 11.22-1.704 16.365-3.751 7.079-2.817 14.577-4.047 22.281-3.654 26.872 1.373 48.86 23.504 50.06 50.384 1.737 38.95-37.711 66.108-73.226 51.24-7.153-2.996-14.775-4.514-22.655-4.514h-68.44c-7.88 0-15.502 1.519-22.655 4.514-35.508 14.867-74.962-12.298-73.226-51.239zm-7.043 104.614 9.671-56.517c12.81 14.06 29.993 21.656 48.252 22.193l-17.636 44.859c-.017.041-.032.082-.048.123-3.485 9.34-13.157 14.943-22.99 13.327-11.378-1.872-19.113-12.654-17.249-23.985z"/><path d="m251.166 201.241h9.667c4.143 0 7.5-3.358 7.5-7.5s-3.357-7.5-7.5-7.5h-9.667c-4.143 0-7.5 3.358-7.5 7.5s3.357 7.5 7.5 7.5z"/><path d="m309.371 186.764h7.666c4.143 0 7.5-3.358 7.5-7.5s-3.357-7.5-7.5-7.5h-7.666c-4.143 0-7.5 3.358-7.5 7.5s3.358 7.5 7.5 7.5z"/><path d="m354.967 186.764h7.667c4.143 0 7.5-3.358 7.5-7.5s-3.357-7.5-7.5-7.5h-7.667c-4.143 0-7.5 3.358-7.5 7.5s3.357 7.5 7.5 7.5z"/><path d="m336.002 213.395c4.143 0 7.5-3.358 7.5-7.5v-7.667c0-4.142-3.357-7.5-7.5-7.5s-7.5 3.358-7.5 7.5v7.667c0 4.142 3.357 7.5 7.5 7.5z"/><path d="m336.002 167.799c4.143 0 7.5-3.358 7.5-7.5v-7.667c0-4.142-3.357-7.5-7.5-7.5s-7.5 3.358-7.5 7.5v7.667c0 4.142 3.357 7.5 7.5 7.5z"/><path d="m149.365 186.764h7.667c4.143 0 7.5-3.358 7.5-7.5s-3.357-7.5-7.5-7.5h-7.667c-4.143 0-7.5 3.358-7.5 7.5s3.358 7.5 7.5 7.5z"/><path d="m194.961 186.764h7.667c4.143 0 7.5-3.358 7.5-7.5s-3.357-7.5-7.5-7.5h-7.667c-4.143 0-7.5 3.358-7.5 7.5s3.357 7.5 7.5 7.5z"/><path d="m175.996 213.395c4.143 0 7.5-3.358 7.5-7.5v-7.667c0-4.142-3.357-7.5-7.5-7.5s-7.5 3.358-7.5 7.5v7.667c0 4.142 3.358 7.5 7.5 7.5z"/><path d="m175.996 167.799c4.143 0 7.5-3.358 7.5-7.5v-7.667c0-4.142-3.357-7.5-7.5-7.5s-7.5 3.358-7.5 7.5v7.667c0 4.142 3.358 7.5 7.5 7.5z"/><path d="m273.5 354.56h198.499c5.238 0 9.5-4.262 9.5-9.5v-285.5c0-5.238-4.262-9.5-9.5-9.5h-431.999c-5.238 0-9.5 4.262-9.5 9.5v285.5c0 5.238 4.262 9.5 9.5 9.5h198.5c4.143 0 7.5-3.358 7.5-7.5s-3.357-7.5-7.5-7.5h-193v-274.5h420.999v274.5h-192.999c-4.143 0-7.5 3.358-7.5 7.5s3.357 7.5 7.5 7.5z"/><path d="m475.632 19.56h-439.265c-20.053 0-36.367 16.314-36.367 36.367v292.765c0 20.054 16.314 36.368 36.367 36.368h169.19l-9.392 47.976c-26.968 1.954-52.15 5.219-73.801 9.648-15.147 3.099-26.141 16.594-26.141 32.09 0 11.434 10.689 19.852 21.788 17.16 37.165-9.009 86.17-13.97 137.987-13.97s100.823 4.961 137.988 13.97c11.088 2.686 21.788-5.713 21.788-17.16 0-15.495-10.993-28.991-26.141-32.089-21.65-4.429-46.832-7.695-73.801-9.649l-9.393-47.976h169.191c20.053 0 36.367-16.314 36.367-36.368v-129.13c0-4.142-3.357-7.5-7.5-7.5s-7.5 3.358-7.5 7.5v129.13c0 11.782-9.585 21.368-21.367 21.368-20.344 0-423.229 0-439.265 0-11.78 0-21.365-9.586-21.365-21.368v-292.765c0-11.782 9.585-21.367 21.367-21.367h439.265c11.782 0 21.367 9.586 21.367 21.368v128.634c0 4.142 3.357 7.5 7.5 7.5s7.5-3.358 7.5-7.5v-128.634c0-20.054-16.314-36.368-36.367-36.368zm-254.79 365.5h70.314l9.201 46.999c-28.027-1.467-58.845-1.568-88.716 0zm35.157 60.854c41.487 0 89.852 3.124 130.63 11.466 8.197 1.677 14.146 8.992 14.146 17.394 0 1.729-1.603 2.981-3.255 2.582-38.288-9.281-88.548-14.392-141.521-14.392s-103.232 5.111-141.521 14.392c-1.671.404-3.255-.872-3.255-2.582 0-8.402 5.949-15.717 14.146-17.395 40.656-8.316 88.799-11.465 130.63-11.465z"/></g></svg>