<svg height="512" viewBox="0 0 64 64" width="512" xmlns="http://www.w3.org/2000/svg"><g id="Smartphone"><path d="m51 12a1 1 0 0 1 1 1 1 1 0 0 0 2 0 3 3 0 0 0 -3-3 1 1 0 0 0 0 2z"/><path d="m51 4a9.01 9.01 0 0 1 9 9 1 1 0 0 0 2 0 11.013 11.013 0 0 0 -11-11 1 1 0 0 0 0 2z"/><path d="m51 8a5.006 5.006 0 0 1 5 5 1 1 0 0 0 2 0 7.008 7.008 0 0 0 -7-7 1 1 0 0 0 0 2z"/><path d="m15 6h-12a1 1 0 0 0 -1 1v8a1 1 0 0 0 1 1h12a1 1 0 0 0 1-1v-8a1 1 0 0 0 -1-1zm-2.762 2-3.3 2.754-4.138-2.754zm-8.238 6v-4.132l5.066 3.378 4.934-4.111v4.865z"/><path d="m9 48a7 7 0 1 0 7 7 7.008 7.008 0 0 0 -7-7zm0 12a5 5 0 1 1 5-5 5.006 5.006 0 0 1 -5 5z"/><path d="m7.515 51.143a1 1 0 0 0 -1.515.857v6a1 1 0 0 0 1.515.857l5-3a1 1 0 0 0 0-1.714zm.485 5.091v-2.468l2.057 1.234z"/><path d="m15 23h-12a1 1 0 0 0 -1 1v12a1 1 0 0 0 1 1h5.52l3.7 4.625a1 1 0 0 0 .78.375 1.027 1.027 0 0 0 .331-.056 1 1 0 0 0 .669-.944v-4h1a1 1 0 0 0 1-1v-12a1 1 0 0 0 -1-1zm-1 12h-1a1 1 0 0 0 -1 1v2.149l-2.219-2.774a1 1 0 0 0 -.781-.375h-5v-10h10z"/><path d="m5 26h2v2h-2z"/><path d="m8 26h5v2h-5z"/><path d="m5 29h2v2h-2z"/><path d="m8 29h5v2h-5z"/><path d="m5 32h2v2h-2z"/><path d="m8 32h5v2h-5z"/><path d="m55 32.184a2.966 2.966 0 0 0 -1-.184 3 3 0 1 0 3 3v-7h3v-2h-5zm-1 3.816a1 1 0 1 1 1-1 1 1 0 0 1 -1 1z"/><path d="m60 52h-1a2 2 0 0 0 -2-2h-2a2 2 0 0 0 -2 2h-1a2 2 0 0 0 -2 2v6a2 2 0 0 0 2 2h8a2 2 0 0 0 2-2v-6a2 2 0 0 0 -2-2zm0 8h-8v-6h1a2 2 0 0 0 2-2h2a2 2 0 0 0 2 2h1z"/><path d="m59 57a3 3 0 1 0 -3 3 3 3 0 0 0 3-3zm-3 1a1 1 0 1 1 1-1 1 1 0 0 1 -1 1z"/><path d="m31 21.919v8.147l-2.386-1.856-1.228 1.58 2.843 2.21-2.843 2.21 1.228 1.58 2.386-1.856v8.147l7.614-6.092-5.128-3.989 5.128-3.989zm4.386 14.092-2.386 1.908v-3.763zm-2.386-6.167v-3.763l2.386 1.908z"/><path d="m37 18h-8a5.006 5.006 0 0 0 -5 5v18a5.006 5.006 0 0 0 5 5h8a5.006 5.006 0 0 0 5-5v-18a5.006 5.006 0 0 0 -5-5zm3 23a3 3 0 0 1 -3 3h-8a3 3 0 0 1 -3-3v-18a3 3 0 0 1 3-3h8a3 3 0 0 1 3 3z"/><path d="m44 2h-22a5.006 5.006 0 0 0 -5 5v50a5.006 5.006 0 0 0 5 5h22a5.006 5.006 0 0 0 5-5v-50a5.006 5.006 0 0 0 -5-5zm0 58h-22a3 3 0 0 1 -3-3v-.026a4.948 4.948 0 0 0 3 1.026h22a4.948 4.948 0 0 0 3-1.026v.026a3 3 0 0 1 -3 3zm0-4h-22a3 3 0 0 1 -3-3v-46a3 3 0 0 1 3-3h22a3 3 0 0 1 3 3v46a3 3 0 0 1 -3 3z"/><path d="m30 6h2v2h-2z"/><path d="m34 6h2v2h-2z"/><path d="m43 5h-3a2 2 0 0 0 -2 2v1a1 1 0 0 1 -1 1h-8a1 1 0 0 1 -1-1v-1a2 2 0 0 0 -2-2h-3a3 3 0 0 0 -3 3v41a3 3 0 0 0 3 3h20a3 3 0 0 0 3-3v-41a3 3 0 0 0 -3-3zm1 44a1 1 0 0 1 -1 1h-20a1 1 0 0 1 -1-1v-41a1 1 0 0 1 1-1h3v1a3 3 0 0 0 3 3h8a3 3 0 0 0 3-3v-1h3a1 1 0 0 1 1 1z"/><path d="m30 53h6v2h-6z"/></g></svg>